<svg width="294" height="66" viewBox="0 0 294 66" fill="none" xmlns="http://www.w3.org/2000/svg">
<path fill-rule="evenodd" clip-rule="evenodd" d="M279.399 5.9386L291.452 6.00443C291.452 6.00443 269.044 36.1124 267.214 38.5662C266.62 39.3607 265.717 40.2176 265.259 41.2799C264.102 43.9502 262.913 49.8079 262.913 49.8079L251.885 49.8625C251.885 49.8625 253.602 43.7566 253.531 40.5044C253.469 37.6635 252.006 34.8258 251.185 31.9765C250.356 29.092 249.23 23.448 249.23 23.448H260.568L262.132 29.6505L279.399 5.9386Z" fill="#1A1918"/>
<path fill-rule="evenodd" clip-rule="evenodd" d="M256.576 12.2884C258.801 13.6179 260.166 20.9524 260.166 20.9524C260.166 20.9524 248.527 21.1226 242.194 21.1226H236.721L230.074 49.8078H219.91C219.91 49.8078 226.236 18.6342 227.729 12.9824C228.213 11.1524 231.044 11.4665 235.826 11.4665H243.46C248.391 11.4665 254.153 10.8422 256.576 12.2884ZM209.257 26.2589C209.257 26.2589 209.574 24.4177 208.182 22.2853C206.994 20.4676 205.896 20.0447 202.768 19.9476C193.937 19.6725 194.108 26.1618 194.108 26.1618L209.257 26.2589ZM218.835 18.8273C220.129 23.4564 217.662 34.3332 217.662 34.3332C217.662 34.3332 204.781 34.12 197.725 34.3332C195.531 34.3996 192.905 34.0966 192.251 35.1087C191.333 36.5269 192.587 38.7101 193.651 39.6324C194.875 40.6941 197.259 40.8152 198.116 40.9229C203.843 41.6443 215.829 41.1092 215.829 41.1092L213.752 50.2257C213.752 50.2257 196.814 51.0682 188.342 49.063C186.669 48.668 185.101 47.8696 184.041 46.7376C183.752 46.4279 183.501 46.0056 183.228 45.6407C183.01 45.3494 182.373 44.3926 182.087 43.6361C180.152 38.5232 182.313 28.7282 184.433 23.4793C184.678 22.8711 184.987 22.0995 185.313 21.4439C185.719 20.6266 186.063 19.7038 186.387 19.215C186.606 18.878 186.876 18.661 187.103 18.343C187.365 17.9669 187.669 17.6026 187.951 17.2773C188.733 16.378 189.62 15.7419 190.688 14.9519C194.217 12.3308 200.605 10.296 208.28 11.0749C211.169 11.3695 215.533 12.3927 217.662 15.3391C218.233 16.1258 218.515 17.6874 218.835 18.8273ZM172.216 11.4308L182.072 11.3734C182.072 11.3734 176.579 37.2093 173.779 49.8078H162.442C154.518 49.8078 147.461 50.7809 144.459 45.1558C141.547 39.6943 144.326 30.7128 145.632 24.6107C146.554 20.2924 148.498 11.466 148.498 11.466L158.709 11.3734C158.709 11.3734 155.824 25.1151 154.623 31.9765C154.193 34.4342 153.306 36.7484 154.233 38.5656C155.112 40.2952 156.344 40.419 160.096 40.5044C161.285 40.5323 165.179 40.5044 165.179 40.5044L172.216 11.4308ZM126.085 30.0377C127.117 26.4022 128.622 22.4599 128.431 19.1838C128.224 15.68 125.261 12.4898 123.349 11.8191C117.59 9.80335 112.199 12.6214 110.056 14.9201C107.285 17.8972 106.346 21.3748 105.365 26.1623C104.635 29.7163 104.036 33.4684 105.365 36.2402C107.718 41.1404 115.056 40.0703 122.958 40.1172C124.13 37.0006 125.1 33.5002 126.085 30.0377ZM139.768 15.6956C140.893 23.8123 136.574 32.7715 133.599 40.5624C136.633 40.8341 139.291 40.5206 139.483 40.7449C139.682 41.0356 137.449 50.0444 136.671 50.0678C134.263 50.1298 126.285 50.1956 122.958 50.1956C112.101 50.1956 101.944 50.8969 96.765 45.5442C94.6617 43.3694 93.2072 39.6396 92.855 37.0157C92.2687 32.6354 93.0035 27.8127 94.0281 23.8363C94.9549 20.2461 96.1427 16.8583 97.9376 13.7568C102.5 5.86104 110.436 1.23978e-05 123.739 1.35299C126.319 1.61633 130.025 2.73665 132.34 4.06619C132.5 4.15936 133.06 4.60124 133.188 4.67879C136.316 6.65218 139.166 11.3616 139.768 15.6956ZM91.733 11.4777C91.0764 14.4431 90.4197 17.8046 89.7276 20.7348H78.7814C79.6293 17.4866 80.2786 14.2573 81.1271 11.4314C84.6298 11.4314 87.8866 11.4777 91.7336 11.4777M78.3903 23.4486H88.9461C87.5658 31.023 84.8329 43.241 82.6908 51.7461C81.35 57.0687 80.4548 60.9524 76.8266 63.7627C76.502 64.0149 76.3146 63.895 76.0445 64.1505C75.376 64.7826 72.2836 65.5157 70.5719 65.701C67.7884 66 64.6413 65.74 61.2203 65.6703C62.1155 62.4259 63.1283 58.5299 63.9262 55.622C72.265 56.6229 72.476 48.8075 74.0903 41.2799C75.0244 36.9303 77.8552 25.1927 78.3903 23.4486Z" fill="#1A1918"/>
<path fill-rule="evenodd" clip-rule="evenodd" d="M53.7609 43.2182L53.5347 43.7995C49.6804 51.2423 42.8501 55.8084 33.1079 56.0098C28.5536 56.1029 24.2143 54.9441 21.3795 53.6843C15.2621 50.9589 10.1165 45.9046 7.30648 40.5044C3.27547 32.7632 2.5485 21.9946 10.9301 13.9515C11.0595 13.9515 9.91335 15.6956 10.0428 15.6956L9.81207 16.4399C3.77232 35.1896 22.3805 51.2579 40.4694 49.4201C44.8166 48.9782 50.3601 46.6176 53.7609 43.2182Z" fill="#21609B"/>
<path fill-rule="evenodd" clip-rule="evenodd" d="M42.8146 35.4652C47.3656 35.4959 52.119 33.3869 54.9341 30.426C52.4713 36.6246 45.3405 40.6087 35.7784 39.3417C27.7715 38.2794 20.1445 30.2904 19.359 22.2853C18.7845 16.4594 20.8321 12.9824 24.2064 8.7645C23.0338 10.9705 22.5955 12.6717 22.4863 13.7568C21.2046 26.3593 32.6392 35.3988 42.8146 35.4652Z" fill="#21609B"/>
<path fill-rule="evenodd" clip-rule="evenodd" d="M54.4766 19.812C53.7694 21.4211 49.6962 24.4595 47.8973 24.8395C40.7744 26.3442 36.2128 22.995 33.8231 19.1838C33.4681 18.6147 32.8114 17.0603 32.6938 16.6647C31.7671 13.5403 32.193 8.8147 34.9575 6.36874C34.1247 8.69474 34.0032 11.3962 34.4415 13.1526C34.7071 14.2143 35.5162 16.0683 36.3259 17.2344C37.799 19.3584 38.7336 19.8745 40.6258 21.0026C41.4783 21.5103 42.3926 21.9176 42.7876 22.0292C44.582 22.5531 48.3699 23.9328 54.4766 19.812Z" fill="#21609B"/>
</svg>
